<svg fill="white" width="14" height="15" viewBox="0 0 14 15" xmlns="http://www.w3.org/2000/svg">
    <path d="M7 13.625C3.6225 13.625 0.875 10.8775 0.875 7.5C0.875 4.1225 3.6225 1.375 7 1.375C10.3775 1.375 13.125 4.1225 13.125 7.5C13.125 10.8775 10.3775 13.625 7 13.625ZM7 2.25C4.10375 2.25 1.75 4.60375 1.75 7.5C1.75 10.3962 4.10375 12.75 7 12.75C9.89625 12.75 12.25 10.3962 12.25 7.5C12.25 4.60375 9.89625 2.25 7 2.25Z"/>
    <path d="M8.75003 9.6875C8.67128 9.6875 8.59253 9.67 8.52253 9.62625L6.33503 8.31375C6.27024 8.27481 6.21676 8.2196 6.17992 8.15359C6.14308 8.08759 6.12416 8.01309 6.12503 7.9375V4.4375C6.12503 4.1925 6.31753 4 6.56253 4C6.80753 4 7.00003 4.1925 7.00003 4.4375V7.6925L8.97753 8.87375C9.05898 8.92367 9.12194 8.99879 9.15685 9.08771C9.19177 9.17663 9.19674 9.27452 9.17102 9.36652C9.1453 9.45853 9.09028 9.53964 9.01431 9.59756C8.93834 9.65548 8.84556 9.68706 8.75003 9.6875Z"/>
</svg>
