<svg width="22" height="21" viewBox="0 0 22 21" fill="none" xmlns="http://www.w3.org/2000/svg">
<path d="M11 13.5C7.68629 13.5 5 10.8137 5 7.5V1.94444C5 1.5306 5 1.32367 5.06031 1.15798C5.16141 0.880213 5.38021 0.661406 5.65798 0.560307C5.82367 0.5 6.0306 0.5 6.44444 0.5H15.5556C15.9694 0.5 16.1763 0.5 16.342 0.560307C16.6198 0.661406 16.8386 0.880213 16.9397 1.15798C17 1.32367 17 1.5306 17 1.94444V7.5C17 10.8137 14.3137 13.5 11 13.5ZM11 13.5V16.5M17 2.5H19.5C19.9659 2.5 20.1989 2.5 20.3827 2.57612C20.6277 2.67761 20.8224 2.87229 20.9239 3.11732C21 3.30109 21 3.53406 21 4V4.5C21 5.42997 21 5.89496 20.8978 6.27646C20.6204 7.31173 19.8117 8.12038 18.7765 8.39778C18.395 8.5 17.93 8.5 17 8.5M5 2.5H2.5C2.03406 2.5 1.80109 2.5 1.61732 2.57612C1.37229 2.67761 1.17761 2.87229 1.07612 3.11732C1 3.30109 1 3.53406 1 4V4.5C1 5.42997 1 5.89496 1.10222 6.27646C1.37962 7.31173 2.18827 8.12038 3.22354 8.39778C3.60504 8.5 4.07003 8.5 5 8.5M6.44444 20.5H15.5556C15.801 20.5 16 20.301 16 20.0556C16 18.0919 14.4081 16.5 12.4444 16.5H9.55556C7.59188 16.5 6 18.0919 6 20.0556C6 20.301 6.19898 20.5 6.44444 20.5Z" />
</svg>
