<svg stroke="white" width="22" height="23" viewBox="0 0 22 23" fill="none" xmlns="http://www.w3.org/2000/svg">
    <path d="M11 14.5C7.68629 14.5 5 11.8137 5 8.5V2.94444C5 2.5306 5 2.32367 5.06031 2.15798C5.16141 1.88021 5.38021 1.66141 5.65798 1.56031C5.82367 1.5 6.0306 1.5 6.44444 1.5H15.5556C15.9694 1.5 16.1763 1.5 16.342 1.56031C16.6198 1.66141 16.8386 1.88021 16.9397 2.15798C17 2.32367 17 2.5306 17 2.94444V8.5C17 11.8137 14.3137 14.5 11 14.5ZM11 14.5V17.5M17 3.5H19.5C19.9659 3.5 20.1989 3.5 20.3827 3.57612C20.6277 3.67761 20.8224 3.87229 20.9239 4.11732C21 4.30109 21 4.53406 21 5V5.5C21 6.42997 21 6.89496 20.8978 7.27646C20.6204 8.31173 19.8117 9.12038 18.7765 9.39778C18.395 9.5 17.93 9.5 17 9.5M5 3.5H2.5C2.03406 3.5 1.80109 3.5 1.61732 3.57612C1.37229 3.67761 1.17761 3.87229 1.07612 4.11732C1 4.30109 1 4.53406 1 5V5.5C1 6.42997 1 6.89496 1.10222 7.27646C1.37962 8.31173 2.18827 9.12038 3.22354 9.39778C3.60504 9.5 4.07003 9.5 5 9.5M6.44444 21.5H15.5556C15.801 21.5 16 21.301 16 21.0556C16 19.0919 14.4081 17.5 12.4444 17.5H9.55556C7.59188 17.5 6 19.0919 6 21.0556C6 21.301 6.19898 21.5 6.44444 21.5Z" stroke-width="1.5" stroke-linecap="round" stroke-linejoin="round"/>
</svg>
