<svg width="16" height="16" viewBox="0 0 16 16" fill="none" xmlns="http://www.w3.org/2000/svg">
  <path d="M11.0371 1.33398H4.963C4.6871 1.33398 4.54916 1.33398 4.43869 1.37419C4.25352 1.44159 4.10764 1.58746 4.04025 1.77264C4.00004 1.8831 4.00004 2.02105 4.00004 2.29695V2.66732V6.00065C4.00004 8.20979 5.7909 10.0007 8.00004 10.0007C10.2092 10.0007 12 8.20979 12 6.00065V2.66732V2.29695C12 2.02105 12 1.8831 11.9598 1.77264C11.8924 1.58746 11.7466 1.44159 11.5614 1.37419C11.4509 1.33398 11.313 1.33398 11.0371 1.33398Z" fill="#515084" />
  <path d="M8.00004 12.0007H7.03708C5.72796 12.0007 4.66671 13.0619 4.66671 14.371C4.66671 14.5347 4.79936 14.6673 4.963 14.6673H11.0371C11.2007 14.6673 11.3334 14.5347 11.3334 14.371C11.3334 13.0619 10.2721 12.0007 8.963 12.0007H8.00004Z" fill="#515084" />
  <path d="M8.00004 10.0007C5.7909 10.0007 4.00004 8.20979 4.00004 6.00065M8.00004 10.0007C10.2092 10.0007 12 8.20979 12 6.00065M8.00004 10.0007V12.0007M4.00004 6.00065V2.29695M4.00004 6.00065V2.66732M12 6.00065V2.29695M12 6.00065V2.66732M12 2.29695C12 2.02105 12 1.8831 11.9598 1.77264C11.8924 1.58746 11.7466 1.44159 11.5614 1.37419C11.4509 1.33398 11.313 1.33398 11.0371 1.33398H4.963C4.6871 1.33398 4.54916 1.33398 4.43869 1.37419C4.25352 1.44159 4.10764 1.58746 4.04025 1.77264C4.00004 1.8831 4.00004 2.02105 4.00004 2.29695M12 2.29695V2.66732M4.00004 2.29695V2.66732M8.963 12.0007H7.03708M8.963 12.0007C10.2721 12.0007 11.3334 13.0619 11.3334 14.371C11.3334 14.5347 11.2007 14.6673 11.0371 14.6673H4.963C4.79936 14.6673 4.66671 14.5347 4.66671 14.371C4.66671 13.0619 5.72796 12.0007 7.03708 12.0007M8.963 12.0007H8.00004M7.03708 12.0007H8.00004M12 2.66732H13.6667C13.9773 2.66732 14.1326 2.66732 14.2552 2.71806C14.4185 2.78573 14.5483 2.91551 14.616 3.07886C14.6667 3.20138 14.6667 3.35669 14.6667 3.66732V4.00065C14.6667 4.62063 14.6667 4.93062 14.5986 5.18496C14.4136 5.87514 13.8745 6.41423 13.1843 6.59917C12.93 6.66732 12.62 6.66732 12 6.66732M4.00004 2.66732H2.33337C2.02275 2.66732 1.86743 2.66732 1.74492 2.71806C1.58157 2.78573 1.45178 2.91551 1.38412 3.07886C1.33337 3.20138 1.33337 3.35669 1.33337 3.66732V4.00065C1.33337 4.62063 1.33337 4.93062 1.40152 5.18496C1.58646 5.87514 2.12555 6.41423 2.81574 6.59917C3.07007 6.66732 3.38006 6.66732 4.00004 6.66732" stroke="#515084" stroke-linecap="round" stroke-linejoin="round" />
</svg>