<svg stroke="#FFFFFF" width="22" height="20" viewBox="0 0 22 20" fill="none" xmlns="http://www.w3.org/2000/svg">
    <path d="M15.3328 7.5H7.33279L11.3328 19L15.3328 7.5Z"/>
    <path d="M13.3328 1.5H9.33279L7.33279 7.5H15.3328L13.3328 1.5Z" />
    <path d="M1.83279 7.5H20.8328M7.33279 7.5L9.33279 1.5H13.3328L15.3328 7.5M7.33279 7.5L11.3328 19L15.3328 7.5M7.33279 7.5H15.3328M11.9474 18.7625L20.906 8.01215C21.0578 7.82995 21.1337 7.73885 21.1628 7.63717C21.1883 7.54751 21.1883 7.45249 21.1628 7.36283C21.1337 7.26114 21.0578 7.17005 20.906 6.98785L16.5727 1.78785C16.4845 1.68204 16.4404 1.62914 16.3864 1.59111C16.3385 1.55741 16.285 1.53238 16.2285 1.51717C16.1647 1.5 16.0958 1.5 15.9581 1.5H6.70749C6.56976 1.5 6.50089 1.5 6.43707 1.51717C6.38053 1.53238 6.3271 1.55741 6.27922 1.59111C6.22517 1.62914 6.18109 1.68204 6.09291 1.78785L1.75958 6.98785C1.60775 7.17004 1.53183 7.26114 1.50283 7.36283C1.47725 7.45249 1.47725 7.54751 1.50283 7.63716C1.53183 7.73885 1.60775 7.82995 1.75958 8.01215L10.7182 18.7625C10.9293 19.0158 11.0348 19.1424 11.1611 19.1886C11.272 19.2291 11.3936 19.2291 11.5044 19.1886C11.6308 19.1424 11.7363 19.0158 11.9474 18.7625Z" stroke-width="1.5" stroke-linecap="round" stroke-linejoin="round"/>
</svg>
