<svg stroke="#FFFFFF" width="25" height="25" viewBox="0 0 25 25" fill="none" xmlns="http://www.w3.org/2000/svg">
    <path d="M17.5 9.5L12.0657 14.9343C11.8677 15.1323 11.7687 15.2313 11.6545 15.2684C11.5541 15.3011 11.4459 15.3011 11.3455 15.2684C11.2313 15.2313 11.1323 15.1323 10.9343 14.9343L9.06569 13.0657C8.86768 12.8677 8.76867 12.7687 8.65451 12.7316C8.55409 12.6989 8.44591 12.6989 8.34549 12.7316C8.23133 12.7687 8.13232 12.8677 7.93431 13.0657L3.5 17.5M17.5 9.5H13.5M17.5 9.5V13.5M8.3 21.5H16.7C18.3802 21.5 19.2202 21.5 19.862 21.173C20.4265 20.8854 20.8854 20.4265 21.173 19.862C21.5 19.2202 21.5 18.3802 21.5 16.7V8.3C21.5 6.61984 21.5 5.77976 21.173 5.13803C20.8854 4.57354 20.4265 4.1146 19.862 3.82698C19.2202 3.5 18.3802 3.5 16.7 3.5H8.3C6.61984 3.5 5.77976 3.5 5.13803 3.82698C4.57354 4.1146 4.1146 4.57354 3.82698 5.13803C3.5 5.77976 3.5 6.61984 3.5 8.3V16.7C3.5 18.3802 3.5 19.2202 3.82698 19.862C4.1146 20.4265 4.57354 20.8854 5.13803 21.173C5.77976 21.5 6.61984 21.5 8.3 21.5Z" stroke-linecap="round" stroke-linejoin="round"/>
</svg>
