<svg stroke="white" width="22" height="22" viewBox="0 0 22 21" fill="none" xmlns="http://www.w3.org/2000/svg">
    <path d="M8 19.5V12.1C8 11.5399 8 11.2599 8.109 11.046C8.20487 10.8578 8.35785 10.7049 8.54601 10.609C8.75993 10.5 9.03995 10.5 9.6 10.5H12.4C12.9601 10.5 13.2401 10.5 13.454 10.609C13.6422 10.7049 13.7951 10.8578 13.891 11.046C14 11.2599 14 11.5399 14 12.1V19.5M1 8L10.04 1.22C10.3843 0.961806 10.5564 0.832709 10.7454 0.782945C10.9123 0.739018 11.0877 0.739018 11.2546 0.782945C11.4436 0.832709 11.6157 0.961806 11.96 1.22L21 8M3 6.5V16.3C3 17.4201 3 17.9802 3.21799 18.408C3.40974 18.7843 3.7157 19.0903 4.09202 19.282C4.51985 19.5 5.0799 19.5 6.2 19.5H15.8C16.9201 19.5 17.4802 19.5 17.908 19.282C18.2843 19.0903 18.5903 18.7843 18.782 18.408C19 17.9802 19 17.4201 19 16.3V6.5L12.92 1.94C12.2315 1.42361 11.8872 1.16542 11.5091 1.06589C11.1754 0.978037 10.8246 0.978037 10.4909 1.06589C10.1128 1.16542 9.76852 1.42361 9.08 1.94L3 6.5Z" stroke-width="1.5" stroke-linecap="round" stroke-linejoin="round"/>
</svg>
