<svg width="25" height="25" viewBox="0 0 25 25" fill="none" xmlns="http://www.w3.org/2000/svg">
<path d="M9.16667 7.5H4.76667C4.20662 7.5 3.92659 7.5 3.71268 7.60899C3.52452 7.70487 3.37154 7.85785 3.27567 8.04601C3.16667 8.25992 3.16667 8.53995 3.16667 9.1V19.9C3.16667 20.4601 3.16667 20.7401 3.27567 20.954C3.37154 21.1422 3.52452 21.2951 3.71268 21.391C3.92659 21.5 4.20662 21.5 4.76667 21.5H9.16667M9.16667 21.5H15.1667M9.16667 21.5L9.16667 5.1C9.16667 4.53995 9.16667 4.25992 9.27567 4.04601C9.37154 3.85785 9.52452 3.70487 9.71268 3.60899C9.92659 3.5 10.2066 3.5 10.7667 3.5L13.5667 3.5C14.1267 3.5 14.4068 3.5 14.6207 3.60899C14.8088 3.70487 14.9618 3.85785 15.0577 4.04601C15.1667 4.25992 15.1667 4.53995 15.1667 5.1V21.5M15.1667 11.5H19.5667C20.1267 11.5 20.4068 11.5 20.6207 11.609C20.8088 11.7049 20.9618 11.8578 21.0577 12.046C21.1667 12.2599 21.1667 12.5399 21.1667 13.1V19.9C21.1667 20.4601 21.1667 20.7401 21.0577 20.954C20.9618 21.1422 20.8088 21.2951 20.6207 21.391C20.4068 21.5 20.1267 21.5 19.5667 21.5H15.1667" />
</svg>
