<svg width="22" height="21" viewBox="0 0 22 21" fill="none" xmlns="http://www.w3.org/2000/svg">
<path d="M15.8331 19.5C15.8331 21.1569 14.4899 22.5 12.8331 22.5C11.1762 22.5 9.83306 21.1569 9.83306 19.5M14.6296 6.73856C15.0651 6.28864 15.3331 5.67562 15.3331 5C15.3331 3.61929 14.2138 2.5 12.8331 2.5C11.4524 2.5 10.3331 3.61929 10.3331 5C10.3331 5.67562 10.6011 6.28864 11.0366 6.73856M18.8331 11.7C18.8331 10.3209 18.2009 8.99823 17.0757 8.02304C15.9505 7.04786 14.4244 6.5 12.8331 6.5C11.2418 6.5 9.71564 7.04786 8.59042 8.02304C7.46521 8.99823 6.83306 10.3209 6.83306 11.7C6.83306 13.9818 6.2672 15.6506 5.56113 16.8447C4.7564 18.2056 4.35404 18.8861 4.36993 19.0486C4.38811 19.2346 4.42158 19.2933 4.5724 19.4036C4.70423 19.5 5.36657 19.5 6.69125 19.5H18.9749C20.2996 19.5 20.9619 19.5 21.0937 19.4036C21.2445 19.2933 21.278 19.2346 21.2962 19.0486C21.3121 18.8861 20.9097 18.2056 20.105 16.8447C19.3989 15.6506 18.8331 13.9818 18.8331 11.7Z" />
</svg>
