<svg stroke="#FFFFFF" width="24" height="25" viewBox="0 0 24 25" fill="none" xmlns="http://www.w3.org/2000/svg">
    <path d="M12 15.5C8.82993 15.5 6.0108 17.0306 4.216 19.406C3.82971 19.9172 3.63656 20.1728 3.64288 20.5183C3.64776 20.7852 3.81536 21.1219 4.02537 21.2867C4.29719 21.5 4.67387 21.5 5.42724 21.5H18.5728C19.3261 21.5 19.7028 21.5 19.9746 21.2867C20.1846 21.1219 20.3522 20.7852 20.3571 20.5183C20.3634 20.1728 20.1703 19.9172 19.784 19.406C17.9892 17.0306 15.1701 15.5 12 15.5Z" stroke-linecap="round" stroke-linejoin="round"/>
    <path d="M12 12.5C14.4853 12.5 16.5 10.4853 16.5 8C16.5 5.51472 14.4853 3.5 12 3.5C9.51472 3.5 7.5 5.51472 7.5 8C7.5 10.4853 9.51472 12.5 12 12.5Z" stroke-linecap="round" stroke-linejoin="round"/>
</svg>
