<svg width="22" height="21" viewBox="0 0 22 21" fill="none" xmlns="http://www.w3.org/2000/svg">
<path d="M9 12.5C5.82993 12.5 3.0108 14.0306 1.216 16.406C0.829708 16.9172 0.636563 17.1728 0.642881 17.5183C0.647762 17.7852 0.815364 18.1219 1.02537 18.2867C1.29719 18.5 1.67387 18.5 2.42724 18.5H15.5728C16.3261 18.5 16.7028 18.5 16.9746 18.2867C17.1846 18.1219 17.3522 17.7852 17.3571 17.5183C17.3634 17.1728 17.1703 16.9172 16.784 16.406C14.9892 14.0306 12.1701 12.5 9 12.5Z" />
<path d="M9 9.5C11.4853 9.5 13.5 7.48528 13.5 5C13.5 2.51472 11.4853 0.5 9 0.5C6.51472 0.5 4.5 2.51472 4.5 5C4.5 7.48528 6.51472 9.5 9 9.5Z" />
</svg>
