<svg stroke="#FFFFFF" width="25" height="25" viewBox="0 0 25 25" fill="none" xmlns="http://www.w3.org/2000/svg">
    <path d="M12.5 15.5L9.5 12.5M12.5 15.5C13.8968 14.9687 15.2369 14.2987 16.5 13.5M12.5 15.5V20.5C12.5 20.5 15.53 19.95 16.5 18.5C17.58 16.88 16.5 13.5 16.5 13.5M9.5 12.5C10.0321 11.1194 10.7022 9.79607 11.5 8.55C12.6652 6.68699 14.2876 5.15305 16.213 4.0941C18.1384 3.03514 20.3027 2.48637 22.5 2.5C22.5 5.22 21.72 10 16.5 13.5M9.5 12.5H4.5C4.5 12.5 5.05 9.47 6.5 8.5C8.12 7.42 11.5 8.5 11.5 8.5M5 17C3.5 18.26 3 22 3 22C3 22 6.74 21.5 8 20C8.71 19.16 8.7 17.87 7.91 17.09C7.52131 16.719 7.00929 16.5046 6.47223 16.488C5.93516 16.4714 5.41088 16.6537 5 17Z" stroke-linecap="round" stroke-linejoin="round"/>
</svg>
