<svg width="21" height="23" viewBox="0 0 21 23" stroke="#FFFFFF" fill="none" xmlns="http://www.w3.org/2000/svg">
    <path d="M14.6671 8.5V5.5C14.6671 3.29086 12.8763 1.5 10.6671 1.5C8.45798 1.5 6.66712 3.29086 6.66712 5.5V8.5M2.25912 9.85196L1.65912 16.252C1.48852 18.0717 1.40322 18.9815 1.70517 19.6843C1.97042 20.3016 2.43524 20.8121 3.02514 21.1338C3.69664 21.5 4.61048 21.5 6.43816 21.5H14.8961C16.7237 21.5 17.6376 21.5 18.3091 21.1338C18.899 20.8121 19.3638 20.3016 19.6291 19.6843C19.931 18.9815 19.8457 18.0717 19.6751 16.252L19.0751 9.85197C18.9311 8.31535 18.859 7.54704 18.5135 6.96616C18.2091 6.45458 17.7595 6.04511 17.2217 5.78984C16.6111 5.5 15.8394 5.5 14.2961 5.5L7.03817 5.5C5.49481 5.5 4.72313 5.5 4.11254 5.78984C3.57478 6.04511 3.12512 6.45458 2.82078 6.96616C2.47521 7.54704 2.40318 8.31534 2.25912 9.85196Z" stroke-width="1.5" stroke-linecap="round" stroke-linejoin="round"/>
</svg>
