<svg fill="#0B0B0B" version="1.0" xmlns="http://www.w3.org/2000/svg" width="500px" height="500px" viewBox="0 0 500 500" preserveAspectRatio="xMidYMid meet">
    <rect width="500" height="501" fill="#E6B980"/>
    <g transform="translate(0,500) scale(0.100000,-0.100000)" fill="#0B0B0B">
        <path fill="#0B0B0B" d="M0 2500 l0 -2500 2500 0 2500 0 0 2500 0 2500 -2500 0 -2500 0 0
-2500z m3052 1082 c38 -22 42 -43 28 -138 -6 -43 -15 -108 -20 -144 -4 -36
-19 -144 -33 -240 -14 -96 -28 -200 -32 -230 -9 -80 -15 -100 -31 -100 -22 0
-26 -39 57 564 31 231 31 239 14 253 -28 20 -1042 19 -1070 -1 -19 -13 -19
-18 9 -232 64 -499 73 -584 58 -584 -6 0 -13 4 -16 9 -6 9 -35 212 -55 376 -5
39 -19 150 -32 249 l-23 179 30 26 29 26 529 2 c485 3 531 1 558 -15z m-852
-91 c18 -4 -32 -21 -61 -21 -24 0 -42 -7 -57 -23 -21 -22 -22 -28 -14 -170 4
-80 4 -143 1 -139 -6 7 -49 274 -49 301 0 8 10 25 22 39 21 21 29 23 88 18 36
-2 67 -5 70 -5z m762 -22 c20 -26 20 -27 -6 -175 l-26 -149 5 139 c5 133 4
141 -17 163 -13 14 -33 23 -52 23 -43 0 -77 11 -70 22 3 5 37 8 76 6 63 -3 73
-6 90 -29z m-532 9 c-131 -56 -173 -85 -221 -152 -16 -21 -29 -32 -29 -24 0
22 51 89 92 120 19 15 62 36 94 47 61 21 108 28 64 9z m227 -14 c50 -20 112
-74 140 -122 31 -52 24 -68 -7 -17 -27 44 -109 107 -170 131 -25 9 -49 21 -55
26 -12 11 51 -1 92 -18z m-25 -90 c56 -29 115 -93 144 -157 54 -118 33 -266
-52 -366 -27 -32 -108 -91 -126 -91 -4 0 -8 27 -8 59 0 55 2 61 31 82 19 13
44 48 61 86 25 53 31 80 35 166 l6 103 -39 33 c-112 99 -256 99 -368 0 l-39
-33 6 -96 c8 -132 28 -192 83 -245 42 -41 44 -46 44 -99 0 -31 -4 -56 -8 -56
-4 0 -28 13 -53 29 -144 91 -196 289 -118 446 26 51 80 110 123 133 77 40 206
43 278 6z m-765 -19 c2 -6 -70 -51 -159 -100 -195 -106 -228 -127 -228 -141 0
-6 25 -51 56 -100 103 -162 164 -267 160 -272 -14 -13 -40 20 -135 169 -127
201 -128 202 -110 229 16 24 377 229 398 227 8 -1 16 -7 18 -12z m1366 -29
c274 -149 312 -172 320 -196 8 -21 -3 -44 -73 -155 -46 -72 -99 -156 -119
-187 -33 -53 -61 -74 -61 -47 0 5 50 90 110 187 61 97 110 182 110 188 0 7
-28 28 -62 47 -126 69 -323 180 -327 183 -4 3 8 24 15 24 3 0 42 -20 87 -44z
m-1400 -121 c-27 -30 -58 -78 -70 -107 -16 -39 -22 -47 -22 -28 -1 39 42 121
84 162 57 55 62 35 8 -27z m1346 26 c41 -39 80 -109 81 -145 0 -11 -12 4 -27
33 -14 30 -46 72 -70 95 -23 22 -43 44 -43 48 0 17 19 7 59 -31z m-1289 -66
c0 -8 -11 -31 -25 -51 -40 -60 -42 -81 -9 -143 16 -31 44 -75 62 -99 49 -65
43 -96 -10 -45 -15 15 -28 22 -28 17 0 -6 18 -28 40 -49 61 -59 53 -87 -10
-40 -46 34 -87 103 -106 176 -14 53 -14 65 1 121 20 81 85 167 85 113z m1266
-17 c40 -48 54 -90 54 -162 0 -101 -56 -203 -133 -242 -43 -23 -56 -3 -20 30
15 14 31 26 34 26 4 0 15 12 24 27 18 27 18 27 -22 -5 -48 -37 -53 -39 -53
-13 0 11 12 28 28 39 15 11 47 54 71 96 49 86 49 107 0 168 -49 62 -34 95 17
36z m-1504 -16 c-23 -20 -42 -43 -42 -50 0 -7 23 -58 51 -113 27 -56 48 -103
46 -105 -5 -5 -137 194 -137 207 0 27 24 61 57 78 60 32 72 24 25 -17z m1728
16 c46 -20 50 -25 50 -55 0 -24 -16 -59 -52 -116 -28 -45 -58 -90 -66 -100
-33 -38 -21 -3 32 96 31 58 56 108 56 112 0 4 -19 25 -42 46 -50 45 -47 47 22
17z m-1206 -123 c9 -86 43 -162 102 -225 40 -43 44 -50 26 -50 -55 0 -141 125
-161 234 -16 86 -14 106 8 106 15 0 19 -11 25 -65z m696 22 c0 -119 -103 -297
-172 -297 -16 0 -11 10 28 53 59 65 93 141 101 223 5 54 9 64 24 64 16 0 19
-8 19 -43z m359 -206 c-13 -37 -76 -111 -95 -111 -20 0 -18 7 20 53 18 23 39
52 45 65 6 12 18 22 26 22 11 0 12 -6 4 -29z m-1390 -41 c22 -33 36 -62 31
-65 -15 -9 -26 1 -61 51 -26 38 -33 74 -15 74 2 0 23 -27 45 -60z m-712 -144
c-3 -8 -17 -33 -32 -55 -24 -40 -27 -41 -80 -41 l-55 0 -2 -162 -3 -163 -50 0
-50 0 -1 105 c0 58 -1 131 -2 163 l-2 57 -54 0 c-53 0 -53 0 -85 51 -17 28
-31 52 -31 55 0 2 102 4 226 4 192 0 225 -2 221 -14z m238 -5 c76 -34 122 -98
132 -179 11 -93 -40 -186 -121 -223 -54 -25 -148 -24 -202 0 -75 34 -126 129
-117 221 8 86 53 150 133 187 39 18 130 15 175 -6z m315 -125 l75 -66 3 105 3
105 49 0 50 0 0 -222 c0 -209 -1 -220 -17 -207 -10 8 -64 54 -119 102 -56 48
-104 87 -108 87 -3 0 -6 -45 -6 -101 l0 -100 -47 3 -48 3 -3 219 -2 218 47
-40 c27 -22 82 -70 123 -106z m541 92 l-30 -53 -105 -3 -106 -3 0 -29 0 -30
74 0 c41 0 77 -4 80 -8 3 -4 -9 -29 -26 -55 -29 -45 -32 -47 -79 -47 l-48 0
-3 -77 -3 -78 -50 0 -50 0 -3 205 c-1 112 0 210 2 217 4 10 49 13 192 13 l186
0 -31 -52z m162 -41 c54 -99 79 -145 120 -217 l32 -55 3 183 c1 100 6 182 10
182 4 0 25 -17 47 -38 102 -96 179 -162 186 -162 5 0 9 45 9 100 l0 100 50 0
50 0 0 -215 c0 -118 -3 -215 -6 -215 -7 0 -91 70 -156 129 -21 19 -47 40 -58
48 -23 16 -20 27 -23 -107 l-2 -75 -80 -3 c-50 -1 -89 3 -103 10 -14 7 -45 53
-72 103 -27 49 -52 91 -57 92 -4 2 -32 -41 -62 -95 -30 -53 -59 -100 -65 -104
-14 -10 -104 -10 -109 0 -3 4 9 32 27 62 50 84 123 217 163 297 20 39 40 70
44 67 4 -2 27 -41 52 -87z m927 81 c-1 -7 -13 -31 -28 -53 -27 -39 -30 -40
-90 -43 l-62 -3 0 -165 0 -165 -47 3 -48 3 -3 162 -2 162 -63 3 -62 3 -3 53
-3 52 205 0 c158 0 206 -3 206 -12z m127 -58 c91 -168 166 -300 172 -300 3 0
12 9 18 20 11 17 26 20 115 22 95 3 103 4 103 23 0 18 -8 20 -86 25 -96 6
-129 21 -155 72 -36 69 -10 157 56 190 29 15 63 18 201 18 l167 0 47 -76 48
-76 44 76 45 76 60 0 c72 0 73 8 -20 -139 l-67 -106 -5 -95 -5 -95 -50 0 -50
0 -5 90 -5 90 -64 99 -65 98 -19 -26 c-18 -25 -22 -26 -117 -26 -81 0 -99 -3
-104 -16 -12 -31 13 -44 85 -44 80 0 108 -9 143 -47 53 -57 44 -149 -21 -193
-35 -24 -41 -25 -211 -25 l-175 0 -56 102 c-31 57 -59 103 -63 103 -4 0 -24
-30 -44 -67 -77 -141 -77 -142 -134 -141 -27 0 -52 3 -54 7 -3 4 29 70 70 147
80 147 143 263 151 277 7 12 15 1 50 -63z m-1087 -310 c10 -18 8 -20 -20 -20
-28 0 -30 2 -20 20 6 11 15 20 20 20 5 0 14 -9 20 -20z m1067 1 c10 -16 9 -20
-12 -24 -31 -5 -37 1 -24 24 12 24 21 24 36 0z m-1541 -321 c72 -107 138 -196
147 -198 9 -2 64 29 122 68 94 63 135 79 135 53 0 -14 -237 -163 -259 -163
-12 0 -28 8 -36 18 -37 42 -272 408 -268 415 11 19 35 -10 159 -193z m60 192
c24 -15 193 -277 184 -286 -4 -4 -13 -5 -19 -2 -13 9 -191 274 -191 287 0 11
11 12 26 1z m216 -99 c87 -129 82 -119 64 -126 -11 -5 -37 25 -91 105 -41 61
-75 114 -75 119 0 5 7 9 15 9 8 0 47 -48 87 -107z m115 68 c26 -36 85 -120
188 -269 l43 -63 70 98 c38 54 92 132 120 174 57 85 78 107 92 93 6 -6 -30
-67 -93 -160 -139 -205 -181 -263 -188 -264 -6 0 -39 47 -183 257 -53 79 -99
150 -102 158 -12 31 27 14 53 -24z m188 22 c8 -10 21 -27 29 -38 15 -20 15
-20 31 2 33 47 65 68 65 43 0 -14 -70 -110 -80 -110 -11 0 -80 94 -80 109 0
17 18 13 35 -6z m488 -1 c-1 -6 -35 -58 -74 -116 -57 -85 -74 -104 -85 -95
-16 13 -20 6 70 133 37 53 73 95 80 93 6 -3 10 -9 9 -15z m147 4 c0 -7 -9 -24
-19 -37 -10 -14 -51 -72 -89 -131 -74 -111 -88 -126 -103 -111 -5 5 10 35 36
73 25 36 61 90 81 120 58 88 94 121 94 86z m-712 -99 c29 -40 67 -93 84 -119
16 -27 33 -48 37 -48 3 0 35 41 71 91 36 50 80 111 99 137 18 26 31 39 28 30
-8 -23 -191 -298 -198 -298 -9 0 -199 294 -198 306 0 5 6 1 12 -9 7 -11 36
-51 65 -90z m899 91 c-8 -23 -260 -403 -271 -410 -6 -4 -19 -8 -28 -8 -17 0
-243 143 -254 161 -3 5 2 12 10 15 9 3 58 -23 121 -65 58 -39 113 -71 120 -71
8 0 73 88 145 195 78 117 137 195 146 195 9 0 14 -6 11 -12z m-932 -360 c63
-98 146 -208 155 -208 7 0 148 193 186 256 9 14 15 16 24 8 9 -9 9 -17 -2 -36
-20 -38 -202 -298 -208 -297 -3 0 -18 19 -34 42 -17 23 -65 93 -109 155 -70
100 -88 143 -60 142 4 -1 26 -29 48 -62z m84 -43 l70 -95 62 80 c34 44 64 80
66 80 8 0 -119 -199 -127 -200 -3 0 -23 28 -44 63 -21 34 -54 86 -73 115 -18
28 -31 52 -29 52 2 0 36 -43 75 -95z m-150 -44 c51 -75 59 -95 41 -106 -15 -9
-124 161 -116 181 8 21 11 18 75 -75z m521 68 c0 -17 -105 -169 -117 -169 -23
0 -14 24 42 108 49 72 75 94 75 61z m-400 -180 c9 -16 9 -28 0 -50 -15 -35
-23 -36 -43 -6 -13 21 -13 26 1 50 20 32 28 34 42 6z m242 -7 c15 -25 15 -29
-3 -51 -11 -13 -21 -22 -22 -20 -33 46 -36 57 -21 78 20 28 26 27 46 -7z
m-173 -87 c13 -19 27 -35 31 -35 5 0 18 16 30 35 26 42 34 43 56 10 16 -24 15
-27 -20 -78 -69 -98 -64 -94 -81 -71 -8 10 -31 43 -51 71 -35 51 -36 54 -20
78 21 33 26 32 55 -10z"/>
        <path d="M2244 3029 c5 -67 30 -120 81 -172 29 -29 40 -36 46 -25 6 9 -4 26
-30 53 -43 45 -68 88 -88 155 l-13 45 4 -56z"/>
        <path d="M2747 3046 c-12 -58 -50 -126 -91 -165 -35 -34 -46 -61 -26 -61 6 0
28 18 50 41 45 47 82 136 78 188 l-3 36 -8 -39z"/>
        <path d="M756 2615 c5 -11 22 -15 70 -15 l64 0 0 -165 c0 -140 2 -165 15 -165
13 0 15 25 15 165 l0 164 67 3 c42 2 68 8 71 16 3 9 -32 12 -152 12 -134 0
-155 -2 -150 -15z"/>
        <path d="M1187 2609 c-138 -73 -118 -284 33 -334 45 -15 54 -15 102 -1 208 60
167 358 -49 356 -28 -1 -64 -9 -86 -21z m180 -37 c98 -70 74 -223 -42 -268
-38 -14 -52 -15 -84 -5 -75 22 -121 82 -121 157 0 43 41 107 83 128 43 22 124
16 164 -12z"/>
        <path d="M1199 2532 c-45 -40 -52 -106 -14 -150 14 -17 44 -37 65 -43 33 -10
44 -9 77 8 45 23 63 53 63 107 0 30 -7 45 -34 72 -29 29 -41 34 -80 34 -36 0
-52 -6 -77 -28z m123 -39 c26 -23 24 -78 -4 -97 -31 -22 -64 -20 -88 6 -24 26
-26 56 -4 86 18 27 69 30 96 5z"/>
        <path d="M1248 2488 c-8 -7 -18 -21 -21 -30 -7 -19 28 -68 46 -67 7 0 2 7 -10
16 -35 24 -25 83 13 83 17 0 44 -28 44 -45 0 -7 -7 -21 -16 -29 -8 -9 -11 -16
-5 -16 11 0 31 32 31 49 0 15 -37 51 -53 51 -7 0 -20 -6 -29 -12z"/>
        <path d="M1800 2499 l0 -131 -24 19 c-13 10 -67 57 -121 106 -53 48 -100 87
-103 87 -4 0 -6 -51 -5 -112 1 -62 2 -132 2 -155 1 -24 6 -43 11 -43 6 0 10
48 10 125 0 113 7 145 25 116 11 -19 216 -191 226 -191 7 0 9 14 5 38 -3 20
-5 90 -6 155 0 71 -4 117 -10 117 -6 0 -10 -50 -10 -131z"/>
        <path d="M1920 2450 c0 -113 4 -180 10 -180 6 0 10 33 10 80 l0 79 62 3 c38 2
63 8 66 16 3 9 -14 12 -62 12 l-66 0 0 70 0 70 114 0 c92 0 115 3 120 15 5 13
-13 15 -124 15 l-130 0 0 -180z"/>
        <path d="M2830 2505 c0 -69 -4 -125 -9 -125 -4 0 -59 47 -122 105 l-114 105
-3 -156 c-1 -86 0 -159 3 -162 14 -14 20 19 21 116 1 59 2 113 3 120 1 17 20
3 142 -108 l93 -84 7 33 c4 19 8 89 8 157 2 106 -1 124 -14 124 -13 0 -15 -19
-15 -125z"/>
        <path d="M2286 2513 c-52 -100 -106 -197 -117 -208 -13 -13 -11 -35 4 -35 6 0
43 56 81 125 38 69 72 125 77 125 4 0 35 -51 69 -112 64 -117 85 -146 96 -135
8 8 -149 300 -164 305 -6 2 -27 -27 -46 -65z"/>
        <path d="M2940 2615 c0 -12 14 -15 65 -15 l65 0 0 -166 c0 -128 3 -165 13
-162 9 4 13 48 15 166 l2 162 64 0 c44 0 67 5 76 15 11 13 -6 15 -144 15 -132
0 -156 -2 -156 -15z"/>
        <path d="M3671 2614 c-30 -21 -51 -71 -44 -107 3 -15 19 -38 35 -52 26 -22 39
-25 113 -25 75 0 85 -2 99 -22 20 -28 20 -58 2 -84 -12 -16 -30 -20 -117 -24
-69 -3 -104 -9 -107 -17 -6 -19 168 -17 213 1 63 26 75 97 26 147 -28 27 -34
29 -109 29 -95 0 -125 17 -125 69 0 54 21 65 130 71 65 3 98 9 101 18 6 20
-187 17 -217 -4z"/>
        <path d="M3980 2622 c0 -5 29 -53 65 -107 l65 -99 0 -73 c0 -58 3 -73 15 -73
12 0 15 15 15 77 0 76 0 77 60 174 33 53 60 100 60 103 0 3 -6 6 -13 6 -7 0
-37 -41 -68 -90 l-56 -90 -59 90 c-51 78 -84 110 -84 82z"/>
        <path d="M3323 2463 c-106 -190 -108 -195 -88 -191 9 1 48 59 86 127 38 68 70
126 73 128 2 2 37 -55 77 -127 41 -71 80 -130 87 -130 6 0 12 2 12 4 0 6 -171
316 -174 316 -1 0 -34 -57 -73 -127z"/>
    </g>
</svg>
